# xmcd
#
# Track frame offsets:
#	150
#	24284
#	59597
#	78975
#	107658
#	126884
#	148999
#	175803
#	199294
#	223836
#
# Disc length: 3570 seconds
#
# Revision: 0
# Processed by: cddbd v1.5.2PL0 Copyright (c) Steve Scherf et al.
# Submitted via: EZCDAudioConverter 1.3.4.1
#
DISCID=950df00a
DTITLE=Jamiroquai - Return Of The Space Cowboy 2/2
DYEAR=1900
DGENRE=
TTITLE0=Light Years [4 To Da Floor Mix]
TTITLE1=Space Cowboy [David Morales Mix]
TTITLE2=Space Cowboy [Demo]
TTITLE3=Morning Glory [Instrumental]
TTITLE4=Stillness In Time [Edit]
TTITLE5=Space Clav
TTITLE6=Light Years [Live At Theatre Du Moulin]
TTITLE7=Scam [Live]
TTITLE8=Journey To Arnhemland [Live]
TTITLE9=We Gettin' Down [Live]
EXTD=
EXTT0=
EXTT1=
EXTT2=
EXTT3=
EXTT4=
EXTT5=
EXTT6=
EXTT7=
EXTT8=
EXTT9=
PLAYORDER=
